<svg width="30" height="30" viewBox="0 0 30 30" fill="none" xmlns="http://www.w3.org/2000/svg">
<path d="M14.9939 0C19.1328 0 22.8801 1.68301 25.6004 4.39239C28.3098 7.11339 29.9928 10.8608 29.9928 14.9996C29.9928 19.1385 28.3098 22.8859 25.6004 25.6069C22.8794 28.3163 19.1328 29.9993 14.9939 29.9993C10.855 29.9993 7.10835 28.3163 4.39897 25.6069C1.67797 22.8859 0.00585938 19.1392 0.00585938 14.9996C0.00585938 10.8608 1.67725 7.11339 4.39825 4.39239C7.10835 1.68301 10.855 0 14.9939 0ZM22.6382 14.181C23.0879 14.181 23.4452 14.55 23.4452 14.9996C23.4452 15.4493 23.0879 15.8183 22.6382 15.8183H15.0171H14.9939C14.6939 15.8183 14.4288 15.6454 14.2907 15.4035L14.2791 15.3919L14.2675 15.3686V15.357L14.2559 15.3338L14.2443 15.3105V15.2989L14.2326 15.2757L14.221 15.264V15.2408L14.2094 15.2176V15.2059L14.1978 15.1827V15.1594V15.1478V15.1362L14.1861 15.1246V15.1013V15.0781V15.0577V15.0461V15.0229V14.9996V5.23426C14.1861 4.78463 14.5435 4.42725 14.9931 4.42725C15.4428 4.42725 15.8118 4.78463 15.8118 5.23426V14.181H22.6382ZM24.4476 5.54587C22.0266 3.12486 18.6831 1.63725 14.9939 1.63725C11.3046 1.63725 7.96111 3.12414 5.54011 5.54587C3.13072 7.96688 1.63149 11.3104 1.63149 14.9996C1.63149 18.6889 3.13 22.0324 5.54011 24.4541C7.96111 26.8751 11.3046 28.3628 14.9939 28.3628C18.6831 28.3628 22.0266 26.8751 24.4476 24.4541C26.8686 22.0331 28.3679 18.6896 28.3679 14.9996C28.3679 11.3104 26.8694 7.96688 24.4476 5.54587Z" fill="#9D9D9D"/>
</svg>
