<svg width="77" height="77" viewBox="0 0 77 77" fill="none" xmlns="http://www.w3.org/2000/svg">
<circle cx="39" cy="38" r="27" fill="#ECE0C9"/>
<path d="M29.725 28.793C28.3314 27.3994 26.0888 27.3994 24.7112 28.793C23.3176 30.1866 23.3176 32.4292 24.7112 33.8067C26.1048 35.1843 28.3474 35.1843 29.725 33.8067C31.1186 32.4132 31.1186 30.1706 29.725 28.793Z" fill="#30363A"/>
<path d="M47.2794 43.1936C45.8858 44.5712 45.9019 46.8298 47.2794 48.2074C48.657 49.601 50.9156 49.601 52.2932 48.2074C53.6868 46.8298 53.6868 44.5712 52.2932 43.1936C50.8996 41.816 48.657 41.816 47.2794 43.1936Z" fill="#30363A"/>
<path d="M18.9915 71.7062C33.7444 80.3882 53.0465 78.3859 65.7171 65.7153C80.7583 50.6901 80.7583 26.3102 65.7331 11.2689M18.9915 71.7062L19.3038 71.3158L19.2758 71.2934M18.9915 71.7062L18.9114 71.6421C13.1128 76.0312 6.88161 76.784 2.54063 76.1113M18.9915 71.7062L19.2451 71.2753C19.2553 71.2813 19.2656 71.2873 19.2758 71.2934M19.2758 71.2934C33.833 79.8416 52.8666 77.8587 65.3635 65.3618L65.3637 65.3616C80.2094 50.5317 80.2096 26.4684 65.3793 11.6223M19.2758 71.2934L19.2237 71.2517L18.9199 71.0086L18.6096 71.2435C12.9303 75.5422 6.83902 76.2715 2.61721 75.6171M65.3793 11.6223C65.3795 11.6224 65.3796 11.6225 65.3797 11.6227L65.7331 11.2689M65.3793 11.6223L65.7331 11.2689M65.3793 11.6223C50.5333 -3.20749 26.4701 -3.20743 11.6242 11.6225M65.7331 11.2689C50.6918 -3.75631 26.3119 -3.75631 11.2706 11.2689M11.2706 11.2689L11.6244 11.6223C11.6243 11.6223 11.6243 11.6224 11.6242 11.6225M11.2706 11.2689C-3.19394 25.7495 -3.73857 48.88 9.65279 64.0014M11.2706 11.2689L11.624 11.6227C11.6241 11.6226 11.6241 11.6225 11.6242 11.6225M11.6242 11.6225C-2.64343 25.9061 -3.18922 48.7166 10.0021 63.6416M9.65279 64.0014L9.97288 63.6173L10.0021 63.6416M9.65279 64.0014L10.0372 64.3217C8.57956 67.4613 6.08069 71.3378 2.10814 73.292C0.794631 73.9328 1.09898 75.887 2.54063 76.1113M9.65279 64.0014L10.0271 63.6699C10.0188 63.6605 10.0104 63.651 10.0021 63.6416M10.0021 63.6416L10.3573 63.9376L10.6526 64.1837L10.4907 64.5323C9.01598 67.7087 6.45475 71.711 2.32884 73.7407L2.32735 73.7414C1.46066 74.1642 1.65203 75.4668 2.61721 75.6171M2.61721 75.6171L2.54063 76.1113M2.61721 75.6171C2.6173 75.6172 2.61739 75.6172 2.61748 75.6172L2.54063 76.1113M18.1711 31.2919L18.1711 31.2936C18.1881 36.2923 22.2218 40.3457 27.2249 40.3457C32.2105 40.3457 36.2787 36.2774 36.2787 31.2919C36.2787 26.3063 32.2105 22.2381 27.2249 22.2381C22.2394 22.2381 18.1711 26.3063 18.1711 31.2919ZM29.2584 53.702L29.2595 53.7007L51.7161 26.663C51.7163 26.6628 51.7164 26.6626 51.7166 26.6624C52.6332 25.5658 52.4699 23.938 51.381 23.0273C50.2845 22.1102 48.6562 22.2733 47.7454 23.3624L47.7443 23.3637L25.2876 50.4014C25.2873 50.4018 25.2869 50.4023 25.2865 50.4027C24.3706 51.4992 24.534 53.1265 25.6227 54.037C26.7193 54.9542 28.3475 54.791 29.2584 53.702ZM40.725 45.7084C40.725 50.6939 44.7933 54.7622 49.7788 54.7622C54.781 54.7622 58.8326 50.6933 58.8326 45.7084C58.8326 40.7229 54.7643 36.6546 49.7788 36.6546C44.7933 36.6546 40.725 40.7229 40.725 45.7084Z" fill="#30363A" stroke="black"/>
</svg>
