<svg width="32" height="26" viewBox="0 0 32 26" fill="none" xmlns="http://www.w3.org/2000/svg">
<path d="M3.64013 7.35612L3.64793 7.36163C4.04836 7.6442 5.26424 8.48958 7.30161 9.90141C9.33791 11.3125 10.8996 12.4002 11.9858 13.1639C12.1121 13.2525 12.3706 13.4381 12.7554 13.7164L12.7556 13.7165C13.1377 13.993 13.4495 14.2123 13.6928 14.3764C13.9276 14.5346 14.2191 14.7172 14.5703 14.9243C14.8875 15.1112 15.1647 15.2388 15.4039 15.3181L15.4062 15.3189C15.6477 15.3996 15.8372 15.428 15.982 15.428H16H16.018C16.1628 15.428 16.3524 15.3995 16.5941 15.3188L16.5961 15.3181C16.8352 15.2388 17.1127 15.1111 17.4296 14.9244C17.7811 14.7167 18.0726 14.5343 18.3073 14.3762C18.5504 14.2124 18.8616 13.9933 19.2441 13.7167C19.6309 13.4366 19.8894 13.2515 20.0152 13.1633L20.0184 13.161C21.1139 12.399 23.9 10.4643 28.3752 7.35761C29.1461 6.81902 29.7849 6.17357 30.298 5.41941L30.2983 5.41896C30.7809 4.71062 31 4.00528 31 3.28592C31 2.77097 30.8267 2.35317 30.4483 1.97886L30.4482 1.97874C30.0641 1.5987 29.6449 1.42871 29.1428 1.42871H2.85702C2.19082 1.42871 1.7957 1.63882 1.52263 1.98085L3.64013 7.35612ZM3.64013 7.35612L3.63222 7.35077M3.64013 7.35612L3.63222 7.35077M3.63222 7.35077C3.00442 6.92548 2.38526 6.32235 1.78288 5.51715L1.78283 5.51708M3.63222 7.35077L1.78283 5.51708M1.78283 5.51708C1.2007 4.73907 1 4.13376 1 3.67852C1 2.93597 1.19346 2.39344 1.52253 1.98098L1.78283 5.51708Z" stroke="#9D9D9D" stroke-width="2"/>
<path d="M30.7784 10.9142L30.7746 10.9168C26.8748 13.5563 23.9216 15.6022 21.9111 17.0572C21.2286 17.5598 20.6638 17.9605 20.2213 18.2531M30.7784 10.9142L18.3655 19.1997L17.9822 18.276L18.3661 19.1994C19.1014 18.8943 19.7264 18.5806 20.2213 18.2531M30.7784 10.9142C30.8531 10.8631 30.927 10.8114 31 10.759L30.7784 10.9142ZM20.2213 18.2531L19.6697 17.419L20.2216 18.2529C20.2215 18.253 20.2214 18.2531 20.2213 18.2531ZM1 9.49276C0.640104 9.19601 0.306783 8.87674 0 8.53516L0 9.94998C0.314123 10.2343 0.647565 10.501 1 10.7499V9.49276ZM1.2417 10.9158C1.24296 10.9166 1.24421 10.9175 1.24546 10.9183C1.24678 10.9192 1.24809 10.9201 1.24941 10.921L1.80375 10.0887L1.2417 10.9158ZM10.0856 17.0546C10.0859 17.0548 10.0862 17.0551 10.0866 17.0553C10.0868 17.0555 10.0871 17.0557 10.0874 17.0559L10.6787 16.2495L10.0856 17.0546ZM12.3304 17.419L11.7784 18.2529L11.7785 18.253L12.3304 17.419ZM14.0178 18.276L13.634 19.1994L13.6344 19.1996L14.0178 18.276Z" stroke="#9D9D9D" stroke-width="2"/>
</svg>
