<svg width="100" height="100" viewBox="0 0 100 100" fill="none" xmlns="http://www.w3.org/2000/svg">
<path d="M89.4603 38.5775L89.3458 39.4059L89.855 40.0692L97.4615 49.9777L89.6514 59.7905L89.1177 60.461L89.235 61.3098L90.9362 73.6185L79.3165 78.3265L78.5237 78.6478L78.2084 79.4429L73.6067 91.0472L61.3099 89.3476L60.4815 89.2332L59.8182 89.7424L49.8874 97.366L39.9566 89.7424L39.2933 89.2332L38.4649 89.3476L26.1681 91.0472L21.5664 79.4429L21.2478 78.6396L20.4445 78.321L8.84016 73.7193L10.5397 61.4225L10.6542 60.5941L10.145 59.9308L2.52279 50.0018L10.2558 39.9589L10.7671 39.295L10.6523 38.4649L8.95277 26.1681L20.5571 21.5664L21.3604 21.2478L21.679 20.4445L26.2807 8.84016L38.5775 10.5397L39.4059 10.6542L40.0692 10.145L49.9982 2.52279L60.0411 10.2558L60.705 10.7671L61.5351 10.6523L73.8319 8.95277L78.4336 20.5571L78.7522 21.3604L79.5555 21.679L91.1598 26.2807L89.4603 38.5775ZM44.6738 67.7595L46.1828 69.0034L47.4603 67.5227L72.235 38.8065L73.5373 37.2971L72.0321 35.9899L67.7528 32.2737L66.241 30.9608L64.9298 32.4742L45.0319 55.4415L34.1494 46.5377L32.6036 45.273L31.3367 46.8169L27.7331 51.2088L26.4674 52.7515L28.0071 54.0207L44.6738 67.7595Z" stroke="#000" stroke-width="4"/>
</svg>
