<svg width="95" height="95" viewBox="0 0 95 95" fill="none" xmlns="http://www.w3.org/2000/svg">
<path d="M95.0008 64.2921C95.0008 52.5033 88.2378 41.9823 78.1088 36.8645C77.7943 59.4679 59.4686 77.7935 36.8652 78.1081C41.983 88.2371 52.5041 95.0001 64.2928 95.0001C69.8201 95.0001 75.1952 93.5281 79.9179 90.7311L94.8668 94.866L90.7318 79.9172C93.5288 75.1944 95.0008 69.8194 95.0008 64.2921Z" fill="url(#paint0_linear)"/>
<rect x="18" y="13" width="37" height="49" fill="#161616"/>
<path d="M72.5488 36.2744C72.5488 16.2723 56.2765 0 36.2744 0C16.2723 0 0 16.2723 0 36.2744C0 42.7932 1.73515 49.1402 5.03006 54.7124L0.133362 72.4147L17.8364 67.5188C23.4086 70.8137 29.7556 72.5488 36.2744 72.5488C56.2765 72.5488 72.5488 56.2765 72.5488 36.2744ZM30.708 27.832H25.1416C25.1416 21.693 30.1354 16.6992 36.2744 16.6992C42.4134 16.6992 47.4072 21.693 47.4072 27.832C47.4072 30.9479 46.0881 33.9428 43.7869 36.0476L39.0576 40.376V44.7168H33.4912V37.9248L40.0288 31.9409C41.1972 30.8718 41.8408 29.4128 41.8408 27.832C41.8408 24.7625 39.3439 22.2656 36.2744 22.2656C33.2049 22.2656 30.708 24.7625 30.708 27.832ZM33.4912 50.2832H39.0576V55.8496H33.4912V50.2832Z" fill="white"/>
<defs>
<linearGradient id="paint0_linear" x1="47.2206" y1="43.647" x2="89.9478" y2="47.9571" gradientUnits="userSpaceOnUse">
<stop stop-color="#FCEFD7"/>
<stop offset="1" stop-color="#C5B9A4"/>
</linearGradient>
</defs>
</svg>
