<svg width="31" height="47" viewBox="0 0 31 47" fill="none" xmlns="http://www.w3.org/2000/svg">
<path d="M15.501 0.0690918C7.3134 0.0690918 0.652344 7.63363 0.652344 16.9317C0.652344 28.4708 13.9404 45.4109 14.5062 46.1264C15.0376 46.7986 15.9653 46.7974 16.4958 46.1264C17.0615 45.4109 30.3496 28.4708 30.3496 16.9317C30.3494 7.63363 23.6885 0.0690918 15.501 0.0690918ZM15.501 42.786C11.0289 36.7533 3.32631 24.8512 3.32631 16.9318C3.32631 9.308 8.78779 3.10575 15.501 3.10575C22.2142 3.10575 27.6756 9.30801 27.6756 16.9317C27.6756 24.8515 19.9742 36.7514 15.501 42.786Z" fill="white"/>
<path d="M15.5019 8.44751C11.3825 8.44751 8.03125 12.2534 8.03125 16.9315C8.03125 21.6096 11.3826 25.4156 15.5019 25.4156C19.6212 25.4156 22.9724 21.6096 22.9724 16.9315C22.9724 12.2534 19.6212 8.44751 15.5019 8.44751ZM15.5019 22.3789C12.8569 22.3789 10.7052 19.9353 10.7052 16.9315C10.7052 13.9278 12.857 11.4842 15.5019 11.4842C18.1468 11.4842 20.2985 13.9278 20.2985 16.9315C20.2985 19.9353 18.1468 22.3789 15.5019 22.3789Z" fill="white"/>
</svg>
