<svg width="85" height="85" viewBox="0 0 85 85" fill="none" xmlns="http://www.w3.org/2000/svg">
<path d="M16.4375 5.3125C16.4375 2.66677 18.6043 0.5 21.25 0.5H58.2304L79.1875 21.4571V79.6875C79.1875 82.3332 77.0207 84.5 74.375 84.5H21.25C18.6043 84.5 16.4375 82.3332 16.4375 79.6875V5.3125Z" stroke="white"/>
<path d="M78.4804 20.75H63.75C61.1043 20.75 58.9375 18.5832 58.9375 15.9375V1.20711L78.4804 20.75Z" stroke="white"/>
<path d="M69.0625 69.0625C69.0625 70.5234 67.8672 71.7188 66.4062 71.7188H7.96875C6.50781 71.7188 5.3125 70.5234 5.3125 69.0625V42.5C5.3125 41.0391 6.50781 39.8438 7.96875 39.8438H66.4062C67.8672 39.8438 69.0625 41.0391 69.0625 42.5V69.0625Z" fill="#ECE0C9"/>
<path d="M19.693 58.981H19.193V59.481V62.286C19.193 62.6449 19.081 62.8775 18.943 63.0182C18.804 63.1598 18.5984 63.2496 18.333 63.2496C17.8637 63.2496 17.3906 62.9027 17.3906 62.286V50.3276C17.3906 49.8483 17.7705 49.3613 18.333 49.3613H23.2391C24.5109 49.3613 25.6954 49.7865 26.5577 50.5936C27.4137 51.395 27.9878 52.606 27.9878 54.2535C27.9878 55.8002 27.4192 56.9707 26.5613 57.7579C25.6969 58.5511 24.5098 58.981 23.2391 58.981H19.693ZM19.693 51.0362H19.193V51.5362V56.8274V57.3274H19.693H23.2391C24.9581 57.3274 26.2891 55.8276 26.2891 54.2535C26.2891 52.5269 24.9721 51.0362 23.2391 51.0362H19.693Z" fill="black" stroke="black"/>
<path d="M33.9866 51.1452H33.4866V51.6452V61.1599V61.6599H33.9866H37.5115C39.0986 61.6599 40.3297 60.9953 41.1587 59.9917C41.9784 58.9992 42.391 57.695 42.4082 56.4093C42.4254 55.1236 42.0478 53.8138 41.2321 52.8156C40.4062 51.8047 39.1556 51.1452 37.5115 51.1452H33.9866ZM32.6479 63.2498C32.3789 63.2498 32.1267 63.175 31.9545 63.044C31.8002 62.9266 31.6816 62.7453 31.6816 62.4349V50.3702C31.6816 50.1667 31.7824 49.9687 31.9732 49.8086C32.1676 49.6454 32.4219 49.5527 32.6479 49.5527H37.5115C39.8002 49.5527 41.4668 50.4138 42.5671 51.6775C43.6762 52.9514 44.2364 54.6664 44.2351 56.4009C44.2339 58.1357 43.6709 59.8531 42.5818 61.1287C41.5016 62.3939 39.8838 63.2498 37.7027 63.2498H32.6479Z" fill="black" stroke="black"/>
<path d="M49.9464 55.1911V55.6911H50.4464H55.8625C56.0828 55.6911 56.3452 55.8064 56.5627 56.0216C56.7811 56.2377 56.8925 56.4932 56.8925 56.6971C56.8925 56.8577 56.8037 57.0447 56.6007 57.2082C56.3985 57.3711 56.1257 57.4722 55.8625 57.4722H50.4464H49.9464V57.9722V62.432C49.9464 62.9216 49.6202 63.2468 49.1741 63.2468C48.8086 63.2468 48.5589 63.1365 48.4065 62.9981C48.2565 62.862 48.168 62.6702 48.168 62.432V50.3673C48.168 50.1179 48.2584 49.9271 48.4059 49.7943C48.5571 49.6581 48.8065 49.5498 49.1741 49.5498H56.6302C56.9991 49.5498 57.2415 49.658 57.3864 49.791C57.5283 49.9212 57.6177 50.112 57.6177 50.3673C57.6177 50.8096 57.2521 51.3123 56.6302 51.3123H50.4464H49.9464V51.8123V51.815V55.1911Z" fill="black" stroke="black"/>
</svg>
