<svg width="18" height="21" viewBox="0 0 18 21" fill="none" xmlns="http://www.w3.org/2000/svg">
<path d="M17.5965 16.1682L14.8167 13.0038C14.263 12.3761 13.346 12.3952 12.7731 13.0476L11.3726 14.6413C11.2841 14.5858 11.1925 14.5278 11.0962 14.4663C10.2118 13.9086 9.0014 13.1441 7.72766 11.6933C6.45015 10.2394 5.77788 8.8595 5.28635 7.85223C5.23449 7.74552 5.18479 7.64263 5.13572 7.54492L6.07565 6.47667L6.53775 5.95006C7.11161 5.29671 7.12743 4.25336 6.57504 3.62385L3.79522 0.459131C3.24282 -0.169492 2.32549 -0.150422 1.75163 0.502923L0.968184 1.39977L0.989593 1.42396C0.726892 1.80549 0.507372 2.24553 0.344011 2.72006C0.193424 3.17175 0.0996685 3.60278 0.0567986 4.03469C-0.310259 7.49825 1.0803 10.6637 4.85409 14.9591C10.0706 20.8962 14.2744 20.4477 14.4558 20.4258C14.8508 20.372 15.2293 20.2646 15.614 20.0946C16.0273 19.9108 16.4136 19.6613 16.7486 19.3629L16.7658 19.3802L17.5594 18.4956C18.1321 17.8424 18.1486 16.7987 17.5965 16.1682Z" fill="#0E0E0E"/>
</svg>
