<svg width="90" height="90" viewBox="0 0 90 90" fill="none" xmlns="http://www.w3.org/2000/svg">
<g clip-path="url(#clip0)">
<path d="M87.901 10.8142C87.3077 10.6761 86.6842 10.8554 86.2558 11.2879L78.9684 18.633H75.4747L71.6288 14.6484V11.106L78.8118 3.81586C79.2369 3.38464 79.4099 2.7646 79.2691 2.17477C79.1291 1.58563 78.6951 1.11047 78.1211 0.916839C76.3166 0.308471 74.4283 0.000166767 72.5078 0.000166767C66.7825 0.000166767 61.5812 2.66985 58.2372 7.32462C55.1075 11.6821 54.1427 17.0221 55.5249 22.1328L42.5769 35.0809L21.0052 13.4598V9.21633C21.0052 8.59903 20.6811 8.02637 20.1517 7.70914L7.72271 0.250792C7.03057 -0.164628 6.14548 -0.0554515 5.57556 0.515151L0.604248 5.48578C0.0343322 6.05638 -0.0748444 6.94147 0.33989 7.63361L7.79686 20.0626C8.11409 20.592 8.68607 20.9154 9.30337 20.9161L13.5455 20.9175L35.1192 42.5386L22.2205 55.4372C17.1098 54.0557 11.7671 55.0218 7.40754 58.1536C2.75551 61.4955 0.0878906 66.6954 0.0878906 72.4207C0.0878906 74.3406 0.396195 76.2295 1.00456 78.0333C1.19888 78.6108 1.67885 79.0468 2.27211 79.1842C2.86606 79.3222 3.48885 79.143 3.918 78.7104L11.2047 71.366H14.7176L18.72 75.3685V78.8814L11.3757 86.168C10.9431 86.5972 10.7639 87.22 10.9019 87.8139C11.0392 88.4072 11.4752 88.8872 12.0527 89.0815C13.8565 89.6898 15.7455 89.9982 17.6653 89.9982C23.3906 89.9982 28.5899 87.3298 31.9325 82.6778C35.0643 78.3183 36.0304 72.9762 34.6488 67.8655L45.0083 57.5061L47.3813 60.0837L46.2923 61.1721C45.6056 61.8587 45.6056 62.9718 46.2923 63.6584C46.9789 64.3444 48.0913 64.3444 48.7786 63.6584L49.7647 62.6724L72.0298 86.8574C72.0463 86.8753 72.0635 86.8925 72.0807 86.9096C76.2005 91.0295 82.8754 91.0309 86.9974 86.9089C91.1076 82.7966 91.1076 76.1052 86.9974 71.9929C86.9795 71.9751 86.961 71.9579 86.9424 71.9407L62.7196 49.7181L63.6946 48.7431C64.3813 48.0571 64.3813 46.9441 63.6946 46.2574C63.008 45.5708 61.8956 45.5708 61.2083 46.2574L60.1268 47.3396L57.5444 44.9693L67.9539 34.5597C69.4336 34.9552 70.9607 35.1557 72.5078 35.1557C82.2004 35.1557 90.0852 27.2703 90.0852 17.5783C90.0852 15.6578 89.7769 13.7695 89.1685 11.965C88.9742 11.3875 88.4942 10.9515 87.901 10.8142ZM15.5189 17.9182C15.1893 17.5879 14.7423 17.4197 14.2754 17.4197L10.2997 17.4183L4.06082 7.00189L7.09099 3.97173L17.4896 10.212V14.1876C17.4896 14.6532 17.6743 15.0995 18.0032 15.4291L40.0912 37.5672L37.6049 40.0529L15.5189 17.9182ZM60.2312 52.2065L84.5364 74.504C87.2514 77.2478 87.2432 81.6904 84.511 84.424C81.7727 87.1623 77.3397 87.1705 74.5903 84.448L52.2524 60.184L60.2312 52.2065ZM57.6384 49.8273L49.869 57.5953L47.496 55.0177L55.056 47.457L57.6384 49.8273ZM72.5078 31.6401C70.9704 31.6401 69.4584 31.3936 68.015 30.9075C67.3826 30.6953 66.6836 30.8587 66.2112 31.3304C57.3988 40.1429 38.4103 59.1307 31.4182 66.1235C30.9458 66.5959 30.7817 67.2949 30.9952 67.928C32.4564 72.2669 31.7574 76.8949 29.0767 80.6268C26.4036 84.3477 22.2439 86.4825 17.6653 86.4825C17.151 86.4825 16.6395 86.4544 16.1327 86.4001L21.7159 80.8603C22.0482 80.5307 22.2357 80.0816 22.2357 79.6126V74.6399C22.2357 74.1737 22.0503 73.7267 21.7207 73.3971L16.6882 68.3647C16.3587 68.0351 15.9116 67.8497 15.4454 67.8497H10.4727C10.0037 67.8497 9.55468 68.0372 9.2244 68.3695L3.68523 73.9526C3.6303 73.4459 3.60283 72.9343 3.60283 72.42C3.60283 67.8408 5.73693 63.6818 9.45855 61.0087C13.1898 58.328 17.8185 57.6283 22.1581 59.0902C22.7905 59.3037 23.4895 59.1396 23.9619 58.6672C24.0587 58.5711 58.7302 23.8989 58.7549 23.8742C59.2273 23.4017 59.3908 22.7034 59.1779 22.0703C57.716 17.7314 58.4137 13.1048 61.0923 9.37563C63.7674 5.65126 67.9278 3.51579 72.5071 3.51579C73.0372 3.51579 73.5638 3.54532 74.0857 3.603L68.6186 9.15178C68.2945 9.48069 68.1132 9.92357 68.1132 10.385V15.3577C68.1132 15.8136 68.2897 16.251 68.6062 16.5785L73.4629 21.611C73.7938 21.9543 74.2505 22.1479 74.7277 22.1479H79.7004C80.1687 22.1479 80.6177 21.9612 80.948 21.6281L86.4872 16.0457C86.5421 16.5525 86.5696 17.064 86.5696 17.5783C86.5696 25.3319 80.2614 31.6401 72.5078 31.6401Z" fill="white"/>
<path d="M54.8413 32.7581L32.8445 54.7548C32.1586 55.4408 32.1586 56.5539 32.8445 57.2405C33.5312 57.9272 34.6442 57.9272 35.3309 57.2405L57.3276 35.2438C58.0142 34.5578 58.0142 33.4448 57.3276 32.7581C56.641 32.0715 55.5279 32.0715 54.8413 32.7581Z" fill="white"/>
</g>
<defs>
<clipPath id="clip0">
<rect width="89.8243" height="90" fill="white"/>
</clipPath>
</defs>
</svg>
