<?xml version="1.0" encoding="utf-8"?><svg xmlns="http://www.w3.org/2000/svg" xmlns:xlink="http://www.w3.org/1999/xlink"><symbol viewBox="0 0 10 16" id="arrow" xmlns="http://www.w3.org/2000/svg"><path d="M1.367 1l6.634 7-6.634 7"/></symbol><symbol viewBox="0 0 30 30" id="clock" xmlns="http://www.w3.org/2000/svg"><path d="M14.994 0A14.99 14.99 0 0125.6 4.392 14.992 14.992 0 0129.993 15 14.99 14.99 0 0125.6 25.607a14.99 14.99 0 01-10.606 4.392 14.943 14.943 0 01-10.595-4.392A14.943 14.943 0 01.006 15c0-4.14 1.671-7.887 4.392-10.608A14.946 14.946 0 0114.994 0zm7.644 14.181c.45 0 .807.369.807.819a.81.81 0 01-.807.818h-7.644a.819.819 0 01-.703-.415l-.012-.011-.011-.023v-.012l-.012-.023-.012-.024v-.01l-.011-.023-.012-.012v-.023l-.012-.023v-.012l-.011-.023v-.047l-.012-.011V5.234c0-.45.357-.807.807-.807.45 0 .819.358.819.807v8.947h6.826zm1.81-8.635a13.322 13.322 0 00-9.454-3.909A13.32 13.32 0 005.54 5.546 13.371 13.371 0 001.631 15a13.37 13.37 0 003.91 9.454 13.322 13.322 0 009.453 3.909c3.69 0 7.033-1.488 9.454-3.909A13.333 13.333 0 0028.368 15a13.33 13.33 0 00-3.92-9.454z"/></symbol><symbol viewBox="0 0 37 38" id="close" xmlns="http://www.w3.org/2000/svg"><path d="M8.484 10.515L9.9 9.101l18.384 18.385L26.87 28.9z"/><path d="M9.9 28.9l-1.414-1.414L26.871 9.1l1.414 1.414z"/></symbol><symbol viewBox="0 0 77 77" id="discount" xmlns="http://www.w3.org/2000/svg"><circle cx="39" cy="38" r="27"/><path d="M29.725 28.793a3.529 3.529 0 00-5.014 0 3.529 3.529 0 000 5.014c1.394 1.377 3.636 1.377 5.014 0a3.529 3.529 0 000-5.014zM47.28 43.194c-1.394 1.377-1.378 3.636 0 5.013a3.529 3.529 0 005.013 0 3.529 3.529 0 000-5.013c-1.393-1.378-3.636-1.378-5.014 0z"/><path d="M18.991 71.706c14.753 8.682 34.056 6.68 46.726-5.99 15.041-15.026 15.041-39.406.016-54.447M18.991 71.706l.313-.39-.028-.023m-.285.413l-.08-.064c-5.798 4.39-12.03 5.142-16.37 4.47m16.45-4.406l.254-.43.03.017m0 0c14.558 8.549 33.592 6.566 46.088-5.931 14.846-14.83 14.847-38.894.016-53.74M19.276 71.293l-.052-.041-.304-.243-.31.234c-5.68 4.3-11.771 5.029-15.993 4.374M65.38 11.622l.354-.353m-.354.353l.354-.353m-.354.353c-14.846-14.83-38.909-14.83-53.755 0m54.11-.353c-15.042-15.025-39.422-15.025-54.463 0m0 0l.353.353m-.353-.353C-3.194 25.749-3.74 48.88 9.653 64m1.617-52.73l.353.354m0 0C-2.643 25.905-3.189 48.717 10.002 63.642m-.35.36l.32-.385.03.025m-.35.36l.385.32c-1.457 3.14-3.956 7.016-7.929 8.97-1.313.64-1.009 2.595.433 2.82m7.112-12.11l.374-.332-.025-.028m0 0l.355.296.296.246-.162.348c-1.475 3.177-4.036 7.179-8.162 9.209h-.002c-.866.423-.675 1.726.29 1.876m0 0l-.076.494m.076-.494l-.076.494m15.63-44.82v.003c.017 4.998 4.05 9.052 9.054 9.052 4.986 0 9.054-4.069 9.054-9.054 0-4.986-4.069-9.054-9.054-9.054-4.986 0-9.054 4.068-9.054 9.054zm11.087 22.411l.002-.001 22.456-27.038a2.583 2.583 0 00-.335-3.636 2.583 2.583 0 00-3.636.335v.002L25.287 50.4l-.002.002a2.583 2.583 0 00.337 3.634 2.583 2.583 0 003.635-.335zm11.467-7.994c0 4.986 4.068 9.054 9.054 9.054 5.002 0 9.054-4.069 9.054-9.054s-4.069-9.053-9.054-9.053c-4.986 0-9.054 4.068-9.054 9.053z"/></symbol><symbol viewBox="0 0 6 12" id="down" xmlns="http://www.w3.org/2000/svg"><path d="M2.25 0H3v9h-.75z"/><path d="M2.625 12L.352 8.062h4.546L2.625 12z"/></symbol><symbol viewBox="0 0 32 26" id="email" xmlns="http://www.w3.org/2000/svg"><path d="M3.64 7.356l.008.006c.4.282 1.616 1.128 3.654 2.54a901.7 901.7 0 014.684 3.262c.126.088.385.274.77.552.382.277.694.496.937.66.235.159.526.341.877.548.317.187.595.315.834.394h.002c.242.082.431.11.576.11h.036c.145 0 .334-.029.576-.11h.002c.24-.08.517-.207.834-.394.351-.207.643-.39.877-.548.243-.164.555-.383.937-.66.387-.28.645-.464.771-.553l.003-.002c1.096-.762 3.882-2.697 8.357-5.803a7.483 7.483 0 001.923-1.939c.483-.708.702-1.414.702-2.133 0-.515-.173-.933-.552-1.307-.384-.38-.803-.55-1.305-.55H2.857c-.666 0-1.061.21-1.334.552L3.64 7.356zm0 0l-.008-.005m.008.005l-.008-.005m0 0c-.628-.426-1.247-1.029-1.85-1.834m1.85 1.834l-1.85-1.834m0 0C1.202 4.74 1 4.134 1 3.68c0-.743.193-1.286.523-1.698l.26 3.536zm28.996 5.397l-.003.003c-3.9 2.64-6.853 4.685-8.864 6.14a41.27 41.27 0 01-1.69 1.196m10.557-7.339L18.366 19.2l-.384-.924.384.923c.735-.305 1.36-.618 1.855-.946m10.557-7.339c.075-.05.149-.103.222-.155l-.222.155zm-10.557 7.34l-.551-.835.552.834zM1 9.492a9.259 9.259 0 01-1-.958V9.95c.314.284.648.551 1 .8V9.493zm.242 1.423l.003.002.004.003.555-.832-.562.827zm8.844 6.139h.001l.592-.805-.593.805zm2.244.364l-.552.834.552-.834zm1.688.857l-.384.923.384-.923z"/></symbol><symbol viewBox="0 0 100 100" id="guarantee" xmlns="http://www.w3.org/2000/svg"><path d="M89.46 38.578l-.114.828.509.663 7.606 9.909-7.81 9.813-.533.67.117.849 1.701 12.308-11.62 4.709-.792.32-.316.796-4.601 11.604-12.297-1.7-.829-.114-.663.51-9.93 7.623-9.931-7.624-.664-.509-.828.115-12.297 1.7-4.602-11.605-.318-.803-.803-.319L8.84 73.719l1.7-12.296.114-.829-.509-.663L2.523 50l7.733-10.042.511-.664-.115-.83-1.7-12.297 11.605-4.602.803-.318.319-.803L26.281 8.84l12.297 1.7.828.114.663-.509L50 2.523l10.042 7.733.664.511.83-.115 12.297-1.7 4.602 11.605.318.803.803.319 11.605 4.602-1.7 12.297zm-44.786 29.18l1.509 1.244 1.277-1.48 24.775-28.716 1.302-1.51-1.505-1.307-4.28-3.716-1.511-1.313-1.311 1.513-19.898 22.968-10.883-8.904-1.545-1.265-1.267 1.544-3.604 4.392-1.266 1.542 1.54 1.27 16.667 13.74z"/></symbol><symbol viewBox="0 0 95 95" id="help" xmlns="http://www.w3.org/2000/svg"><path d="M95 64.292c0-11.789-6.762-22.31-16.891-27.428-.315 22.604-18.64 40.93-41.244 41.244C41.983 88.238 52.505 95 64.293 95a30.597 30.597 0 0015.625-4.269l14.949 4.135-4.135-14.949A30.598 30.598 0 0095 64.292z"/><path d="M18 13h37v49H18z"/><path d="M72.549 36.274C72.549 16.272 56.276 0 36.274 0S0 16.272 0 36.274a36.161 36.161 0 005.03 18.438L.133 72.415l17.703-4.896a36.161 36.161 0 0018.438 5.03c20.002 0 36.275-16.273 36.275-36.275zm-41.841-8.442h-5.566c0-6.139 4.993-11.133 11.132-11.133 6.14 0 11.133 4.994 11.133 11.133 0 3.116-1.319 6.11-3.62 8.216l-4.73 4.328v4.34h-5.566v-6.791l6.538-5.984a5.51 5.51 0 001.812-4.109 5.572 5.572 0 00-5.567-5.566 5.572 5.572 0 00-5.566 5.566zm2.783 22.451h5.567v5.567H33.49v-5.567z"/><defs><linearGradient id="hpaint0_linear" x1="47.221" y1="43.647" x2="89.948" y2="47.957" gradientUnits="userSpaceOnUse"><stop stop-color="#FCEFD7"/><stop offset="1" stop-color="#C5B9A4"/></linearGradient></defs></symbol><symbol viewBox="0 0 31 47" id="location" xmlns="http://www.w3.org/2000/svg"><path d="M15.501.07C7.313.07.652 7.633.652 16.931c0 11.539 13.288 28.479 13.854 29.194.532.673 1.46.671 1.99 0 .566-.715 13.854-17.655 13.854-29.194C30.35 7.634 23.688.069 15.5.069zm0 42.716C11.029 36.753 3.326 24.851 3.326 16.932c0-7.624 5.462-13.826 12.175-13.826 6.713 0 12.175 6.202 12.175 13.826 0 7.92-7.702 19.82-12.175 25.854z"/><path d="M15.502 8.448c-4.12 0-7.47 3.805-7.47 8.483 0 4.679 3.35 8.485 7.47 8.485 4.12 0 7.47-3.806 7.47-8.485 0-4.678-3.35-8.483-7.47-8.483zm0 13.93c-2.645 0-4.797-2.443-4.797-5.447 0-3.003 2.152-5.447 4.797-5.447 2.645 0 4.796 2.444 4.796 5.447 0 3.004-2.151 5.448-4.796 5.448z"/></symbol><symbol viewBox="0 0 34 15" id="next" xmlns="http://www.w3.org/2000/svg"><path d="M0 8.625V6.5h25.5v2.125z"/><path d="M34 7.563l-11.156 6.44V1.122L34 7.562z"/></symbol><symbol viewBox="0 0 85 85" id="pdf" xmlns="http://www.w3.org/2000/svg"><path d="M16.438 5.313C16.438 2.667 18.604.5 21.25.5h36.98l20.958 20.957v58.23a4.829 4.829 0 01-4.813 4.813H21.25a4.829 4.829 0 01-4.813-4.813V5.314z"/><path d="M78.48 20.75H63.75a4.829 4.829 0 01-4.813-4.813V1.207L78.48 20.75zM69.063 69.063a2.664 2.664 0 01-2.657 2.656H7.97a2.664 2.664 0 01-2.657-2.656V42.5a2.664 2.664 0 012.657-2.656h58.437a2.664 2.664 0 012.656 2.656v26.563z"/><path d="M19.693 58.981h-.5v3.305c0 .359-.112.591-.25.732-.139.142-.345.232-.61.232a.931.931 0 01-.942-.964V50.328c0-.48.38-.967.942-.967h4.906c1.272 0 2.456.425 3.319 1.233.856.801 1.43 2.012 1.43 3.66 0 1.546-.569 2.717-1.427 3.504-.864.793-2.051 1.223-3.322 1.223h-3.546zm0-7.945h-.5v6.291h4.046c1.72 0 3.05-1.5 3.05-3.073 0-1.727-1.317-3.218-3.05-3.218h-3.546zm14.294.109h-.5V61.66h4.024c1.588 0 2.819-.665 3.648-1.668.82-.993 1.232-2.297 1.25-3.583.016-1.285-.361-2.595-1.177-3.593-.826-1.011-2.076-1.67-3.72-1.67h-3.525zm-1.34 12.105c-.268 0-.52-.075-.692-.206-.155-.117-.273-.299-.273-.61V50.37c0-.203.1-.401.291-.561a1.09 1.09 0 01.675-.256h4.863c2.29 0 3.956.86 5.056 2.125 1.11 1.273 1.67 2.988 1.668 4.723-.001 1.735-.564 3.452-1.653 4.728-1.08 1.265-2.698 2.12-4.88 2.12h-5.054zm17.299-8.059v.5h5.916c.22 0 .483.115.7.33.22.217.33.472.33.676 0 .16-.088.348-.291.511a1.21 1.21 0 01-.739.264h-5.916v4.96c0 .49-.326.815-.772.815-.365 0-.615-.11-.767-.249a.74.74 0 01-.239-.566V50.367c0-.25.09-.44.238-.573.151-.136.4-.244.768-.244h7.456c.37 0 .611.108.756.241.142.13.232.321.232.576a.968.968 0 01-.988.945h-6.684v3.879z"/></symbol><symbol viewBox="0 0 18 21" id="phone" xmlns="http://www.w3.org/2000/svg"><path d="M17.596 16.168l-2.78-3.164c-.553-.628-1.47-.609-2.043.044l-1.4 1.593a21.74 21.74 0 01-.277-.175c-.884-.557-2.095-1.322-3.368-2.773-1.278-1.454-1.95-2.833-2.442-3.84-.052-.107-.101-.21-.15-.308l.94-1.068.462-.527c.574-.653.59-1.697.037-2.326L3.795.459c-.552-.628-1.47-.61-2.043.044L.968 1.4l.022.024A5.382 5.382 0 00.344 2.72a5.99 5.99 0 00-.287 1.315C-.31 7.498 1.08 10.664 4.854 14.959c5.217 5.937 9.42 5.489 9.602 5.467a4.243 4.243 0 001.158-.331 4.43 4.43 0 001.135-.732l.017.017.793-.884c.573-.654.59-1.697.037-2.328z"/></symbol><symbol viewBox="0 0 7 9" id="play" xmlns="http://www.w3.org/2000/svg"><path d="M7 4.5L.25 8.397V.603L7 4.5z"/></symbol><symbol viewBox="0 0 90 90" id="tools" xmlns="http://www.w3.org/2000/svg"><g clip-path="url(#nclip0)"><path d="M87.901 10.814a1.756 1.756 0 00-1.645.474l-7.288 7.345h-3.493l-3.846-3.985v-3.542l7.183-7.29a1.756 1.756 0 00-.69-2.9A17.533 17.533 0 0072.507 0c-5.725 0-10.927 2.67-14.27 7.325-3.13 4.357-4.095 9.697-2.713 14.808L42.577 35.08 21.005 13.46V9.216c0-.617-.324-1.19-.853-1.507L7.722.251a1.756 1.756 0 00-2.146.264L.604 5.485a1.76 1.76 0 00-.264 2.15l7.457 12.429c.317.529.89.852 1.506.853l4.242.002 21.574 21.62-12.898 12.9c-5.111-1.382-10.454-.416-14.813 2.716-4.652 3.34-7.32 8.54-7.32 14.265 0 1.92.308 3.808.917 5.612a1.756 1.756 0 002.913.677l7.287-7.344h3.513l4.002 4.002v3.513l-7.344 7.287a1.758 1.758 0 00.677 2.913 17.53 17.53 0 005.612.917c5.726 0 10.925-2.668 14.268-7.32 3.131-4.36 4.097-9.702 2.716-14.813l10.36-10.359 2.372 2.578-1.089 1.088a1.758 1.758 0 102.487 2.486l.986-.986L72.03 86.857l.05.053c4.12 4.12 10.795 4.12 14.917-.001 4.11-4.112 4.11-10.804 0-14.916a2.09 2.09 0 00-.055-.052L62.72 49.718l.975-.975a1.757 1.757 0 10-2.487-2.486l-1.081 1.083-2.583-2.37 10.41-10.41c1.48.395 3.007.596 4.554.596 9.692 0 17.577-7.886 17.577-17.578 0-1.92-.308-3.808-.916-5.613a1.756 1.756 0 00-1.268-1.15zm-72.382 7.104a1.74 1.74 0 00-1.244-.498l-3.975-.002L4.06 7.002l3.031-3.03 10.399 6.24v3.976c0 .465.184.912.513 1.241l22.088 22.138-2.486 2.486-22.086-22.135zM60.23 52.206l24.305 22.298c2.715 2.744 2.707 7.186-.025 9.92a7.032 7.032 0 01-9.92.024L52.251 60.184l7.98-7.977zm-2.593-2.379l-7.769 7.768-2.373-2.577 7.56-7.561 2.582 2.37zm14.87-18.187a14.05 14.05 0 01-4.493-.733 1.76 1.76 0 00-1.804.423L31.418 66.124a1.757 1.757 0 00-.423 1.804c1.461 4.339.762 8.967-1.918 12.699-2.673 3.72-6.833 5.856-11.412 5.856a14.46 14.46 0 01-1.532-.083l5.583-5.54c.332-.33.52-.778.52-1.247V74.64c0-.466-.186-.913-.515-1.243l-5.033-5.032a1.758 1.758 0 00-1.243-.515h-4.972a1.76 1.76 0 00-1.249.52l-5.539 5.583a14.22 14.22 0 01-.082-1.533c0-4.58 2.134-8.738 5.856-11.411 3.73-2.681 8.36-3.38 12.7-1.919.632.214 1.33.05 1.803-.423l34.793-34.793c.472-.472.636-1.17.423-1.804-1.462-4.339-.764-8.965 1.914-12.694 2.675-3.725 6.836-5.86 11.415-5.86.53 0 1.057.03 1.579.087l-5.467 5.549a1.757 1.757 0 00-.506 1.233v4.973c0 .456.177.893.493 1.22l4.857 5.033c.33.343.788.537 1.265.537H79.7c.469 0 .918-.187 1.248-.52l5.54-5.582c.054.506.082 1.018.082 1.532 0 7.754-6.309 14.062-14.062 14.062z"/><path d="M54.841 32.758L32.844 54.755a1.759 1.759 0 002.487 2.485l21.997-21.996a1.757 1.757 0 10-2.487-2.486z"/></g><defs><clipPath id="nclip0"><path d="M0 0h89.824v90H0z"/></clipPath></defs></symbol></svg>