<svg width="142" height="52" viewBox="0 0 142 52" fill="none" xmlns="http://www.w3.org/2000/svg">
<path d="M42.6914 0.614502H50.6962C55.3837 0.614502 58.4847 3.39899 58.4847 8.06711V8.14901C58.4847 13.1447 55.0953 15.7654 50.4799 15.7654H47.9558V21.8258H42.7635V0.614502H42.6914ZM50.3356 11.1792C52.1385 11.1792 53.2924 10.1145 53.2924 8.3947V8.3128C53.2924 6.51107 52.1385 5.52831 50.3356 5.52831H47.8837V11.0973H50.3356V11.1792Z" fill="white"/>
<path d="M60.4315 0.614502H69.2296C72.1142 0.614502 74.0613 1.43347 75.2873 2.90761C76.369 4.13606 76.9459 5.774 76.9459 7.82142V7.90332C76.9459 11.1792 75.4315 13.3085 73.1238 14.3732L77.595 21.7439H71.6094L67.8594 15.3559H67.7873H65.5517V21.7439H60.3594V0.614502H60.4315ZM69.0132 10.7697C70.744 10.7697 71.7536 9.78694 71.7536 8.2309C71.7536 6.59297 70.6719 5.6921 68.9411 5.6921H65.5517V10.7697H69.0132Z" fill="white"/>
<path d="M78.5332 11.2607C78.5332 5.1184 82.8601 0.20459 88.6294 0.20459C94.3986 0.20459 98.6534 5.0365 98.6534 11.1788V11.2607C98.6534 17.321 94.3265 22.3167 88.5573 22.3167C82.788 22.2348 78.5332 17.4029 78.5332 11.2607ZM93.3169 11.2607C93.3169 8.14858 91.3698 5.44599 88.5573 5.44599C85.7447 5.44599 83.8697 8.06668 83.8697 11.0969V11.1788C83.8697 14.2089 85.8169 16.9115 88.6294 16.9115C91.4419 16.9115 93.3169 14.3727 93.3169 11.2607Z" fill="white"/>
<path d="M101.178 0.614502H116.106V5.774H106.37V9.37746H115.168V14.2913H106.37V21.8258H101.178V0.614502Z" fill="white"/>
<path d="M119.062 0.614502H124.255V21.8258H119.062V0.614502Z" fill="white"/>
<path d="M127.211 0.614502H132.403V16.6663H141.418V21.8258H127.211V0.614502Z" fill="white"/>
<path d="M42.6914 29.3599H49.9029C56.5376 29.3599 60.4318 33.7004 60.4318 39.8427V39.9246C60.4318 46.0668 56.5376 50.5711 49.8308 50.5711H42.7635V29.3599H42.6914ZM49.9751 45.3297C53.076 45.3297 55.0953 43.3642 55.0953 40.0064V39.9246C55.0953 36.5668 53.076 34.6013 49.9751 34.6013H47.8837V45.4116H49.9751V45.3297Z" fill="white"/>
<path d="M62.3066 40.0065C62.3066 33.8642 66.6336 28.9504 72.4028 28.9504C78.172 28.9504 82.4268 33.7824 82.4268 39.9246V40.0065C82.4268 46.0669 78.0999 51.0626 72.3307 51.0626C66.5614 50.9807 62.3066 46.1488 62.3066 40.0065ZM77.0903 40.0065C77.0903 36.8944 75.1432 34.1918 72.2586 34.1918C69.4461 34.1918 67.5711 36.8125 67.5711 39.8427V39.9246C67.5711 42.9548 69.5182 45.6574 72.3307 45.6574C75.2153 45.6574 77.0903 43.1186 77.0903 40.0065Z" fill="white"/>
<path d="M84.3027 40.0065C84.3027 33.8642 88.6297 28.9504 94.3989 28.9504C100.168 28.9504 104.423 33.7824 104.423 39.9246V40.0065C104.423 46.0669 100.096 51.0626 94.3268 51.0626C88.5575 50.9807 84.3027 46.1488 84.3027 40.0065ZM99.1585 40.0065C99.1585 36.8944 97.2114 34.1918 94.3268 34.1918C91.5143 34.1918 89.6393 36.8125 89.6393 39.8427V39.9246C89.6393 42.9548 91.5864 45.6574 94.3989 45.6574C97.2114 45.6574 99.1585 43.1186 99.1585 40.0065Z" fill="white"/>
<path d="M106.947 29.3599H115.745C118.63 29.3599 120.577 30.1788 121.803 31.653C122.885 32.8814 123.462 34.5194 123.462 36.5668V36.6487C123.462 39.9246 121.947 42.0539 119.639 43.1185L124.111 50.4892H118.125L114.375 44.1013H114.303H112.067V50.4892H106.875V29.3599H106.947ZM115.529 39.5151C117.26 39.5151 118.269 38.5323 118.269 36.9763V36.8944C118.269 35.2564 117.187 34.3556 115.457 34.3556H112.067V39.5151H115.529Z" fill="white"/>
<path d="M125.047 47.4591L127.931 43.5281C129.734 45.166 131.826 46.0669 133.989 46.0669C135.359 46.0669 136.153 45.4936 136.153 44.5927V44.5108C136.153 43.61 135.504 43.1186 132.98 42.4634C129.013 41.3988 125.912 40.1703 125.912 35.8298V35.7479C125.912 31.8168 128.653 28.9504 133.124 28.9504C136.297 28.9504 138.749 29.9332 140.768 31.7349L138.172 35.9117C136.441 34.5194 134.566 33.7824 132.98 33.7824C131.754 33.7824 131.105 34.3556 131.105 35.1746V35.2565C131.105 36.2393 131.754 36.6487 134.35 37.3039C138.605 38.3686 141.273 39.9246 141.273 43.9376V44.0194C141.273 48.36 138.244 50.8988 133.701 50.8988C130.456 50.8988 127.282 49.7522 125.047 47.4591Z" fill="white"/>
<path d="M0 0.614502V51.3086H32.1635V0.614502H0Z" fill="white"/>
</svg>
